<?xml version="1.0" standalone="no"?>
<!DOCTYPE svg PUBLIC "-//W3C//DTD SVG 20010904//EN" "http://www.w3.org/TR/2001/REC-SVG-20010904/DTD/svg10.dtd">
<svg version="1.0" xmlns="http://www.w3.org/2000/svg"
     width="1000" height="500" viewBox="0 0 1000 500"
     preserveAspectRatio="xMidYMid meet">
    <g transform="translate(0.000000,500) scale(0.100000,-0.100000)" fill="white">
        <path d="M2285 4673 c-107 -56 -228 -241 -436 -668 -405 -831 -756 -1893 -811
-2456 -32 -331 84 -611 296 -710 66 -31 67 -31 204 -27 129 3 142 6 214 37
154 65 365 218 638 461 229 203 720 671 980 931 166 168 281 275 307 288 54
27 95 27 119 0 30 -33 24 -205 -15 -474 -56 -379 -57 -560 -2 -678 52 -113
134 -168 279 -188 353 -47 839 264 1135 727 81 127 186 312 283 500 53 101
104 194 114 206 l18 22 118 -22 c194 -37 285 -44 564 -44 284 0 439 12 720 58
592 97 1310 311 1729 517 132 64 195 114 207 161 6 24 2 33 -20 53 -42 36 -91
30 -307 -38 -789 -247 -1693 -451 -2209 -498 -313 -29 -569 0 -776 89 -133 57
-209 54 -262 -10 -21 -25 -92 -168 -144 -290 -123 -287 -421 -698 -663 -913
-155 -138 -296 -218 -406 -232 -50 -6 -58 -4 -85 18 l-29 25 1 154 c1 97 11
241 29 393 15 132 28 292 29 355 1 101 -2 121 -22 161 -70 143 -251 231 -414
201 -139 -25 -343 -157 -613 -395 -170 -150 -266 -239 -590 -551 -288 -277
-472 -442 -588 -529 -295 -220 -439 -210 -504 34 -27 102 -22 337 11 509 119
628 570 1764 1016 2565 81 146 100 187 98 215 -3 30 -8 37 -38 47 -50 17 -139
15 -175 -4z"/>
    </g>
</svg>
